<?xml version="1.0" encoding="utf-8"?>
<!-- Generator: Adobe Illustrator 25.0.1, SVG Export Plug-In . SVG Version: 6.00 Build 0)  -->
<svg version="1.1" id="Layer_1" xmlns="http://www.w3.org/2000/svg" xmlns:xlink="http://www.w3.org/1999/xlink" x="0px" y="0px"
	 viewBox="0 0 595.28 841.89" style="enable-background:new 0 0 595.28 841.89;" xml:space="preserve">
<style type="text/css">
	.st0{fill:#C49E5A;}
</style>
<g>
	<g>
		<path class="st0" d="M233.6,523.57c-2.96,1.06-6.39,1.59-10.29,1.59c-4.88,0-8.59-0.86-11.13-2.59c-2.54-1.73-3.81-4.23-3.81-7.5
			c0-3.16,1.23-5.64,3.69-7.43c2.46-1.79,6.21-2.68,11.25-2.68c1.82,0,3.62,0.12,5.4,0.36c1.78,0.24,3.22,0.56,4.3,0.95l-1.44,1.78
			c-2.51-0.74-5.26-1.1-8.26-1.1c-3.47,0-6.06,0.65-7.75,1.95c-1.69,1.3-2.54,3.36-2.54,6.17c0,5.41,3.43,8.11,10.29,8.11
			c2.9,0,5.88-0.46,8.92-1.38L233.6,523.57z"/>
		<path class="st0" d="M265.18,524.79h-20.52v-19.46h4.38v17.49h16.14V524.79z"/>
		<path class="st0" d="M297.91,518.66c0,2.25-0.89,3.9-2.66,4.94c-1.77,1.04-4.47,1.56-8.08,1.56c-7.29,0-10.93-2.15-10.93-6.44
			v-13.39h4.38v13.18c0,3.11,2.18,4.66,6.55,4.66c2.19,0,3.8-0.37,4.82-1.1c1.02-0.74,1.54-1.93,1.54-3.59v-13.16h4.38V518.66z"/>
		<path class="st0" d="M324.45,514.11c2.51,0.3,4.48,0.89,5.91,1.77c1.42,0.87,2.14,1.91,2.14,3.12c0,1.77-1.24,3.17-3.73,4.22
			s-5.47,1.57-8.96,1.57h-10.72v-19.46h10.45c3.63,0,6.48,0.41,8.52,1.23c2.05,0.82,3.07,1.98,3.07,3.48c0,0.92-0.59,1.74-1.78,2.45
			c-1.18,0.72-2.82,1.24-4.9,1.56V514.11z M313.47,513.06h5.13c5.36,0,8.04-0.99,8.04-2.96c0-0.9-0.66-1.59-1.98-2.08
			c-1.32-0.48-3.25-0.72-5.8-0.72h-5.4V513.06z M313.47,522.81h4.97c2.9,0,5.21-0.34,6.91-1.02c1.7-0.68,2.55-1.61,2.55-2.8
			c0-1.26-0.84-2.23-2.51-2.92c-1.67-0.69-4.1-1.03-7.27-1.03h-4.65V522.81z"/>
	</g>
	<g>
		<path class="st0" d="M253.29,356.72h-11.62v17.62h-4.36v-17.62h-11.68v-1.83h27.66V356.72z"/>
		<path class="st0" d="M283.11,374.34h-4.38v-9.65h-12.91v9.65h-4.38v-19.46h4.38v7.82h12.91v-7.82h4.38V374.34z"/>
		<path class="st0" d="M315.23,374.34h-19.69v-19.46h19.53v1.97h-15.15v6.03h14.56v1.97h-14.56v7.52h15.31V374.34z"/>
	</g>
	<g>
		<path class="st0" d="M36.75,465.13c-1.29,0-2.58-0.11-3.87-0.33c-9.31-1.18-15.54-6.98-18.69-17.4
			c-3.29-11.16-3.44-27.31-0.43-48.44c0.29-2.22,0.75-4.01,1.4-5.38c0.64-1.37,1.36-2.44,2.15-3.21c0.79-0.78,1.61-1.33,2.47-1.66
			c0.86-0.33,1.64-0.57,2.36-0.72c0.57-0.15,1.54-0.18,2.9-0.11c1.36,0.07,2.83,0.55,4.4,1.44c2.15,1.33,3.76,3.48,4.83,6.43
			c1.07,2.96,1.47,6.28,1.18,9.98c-0.29,3.25-1.43,7.22-3.44,11.92c-2.01,4.69-5.8,9.77-11.38,15.24c-0.14,0-0.21,0.04-0.21,0.11
			c0.29,2.59,0.57,5.03,0.86,7.32c0.29,2.29,0.79,4.4,1.5,6.32c0.86,2.81,1.83,5.08,2.9,6.82c1.07,1.74,2.15,3.12,3.22,4.16
			c1.07,1.04,2.15,1.77,3.22,2.22c1.07,0.44,2.04,0.7,2.9,0.78c2.43,0.37,5.37-0.06,8.81-1.27c3.44-1.22,7.23-3.08,11.38-5.6
			c4.01-2.44,8.13-5.63,12.35-9.59c4.22-3.95,8.27-8.04,12.14-12.25c0.57-0.59,1.4-0.98,2.47-1.16c1.07-0.18,2.18-0.13,3.33,0.17
			c1.14,0.3,1.9,0.72,2.26,1.27c0.36,0.55,0.25,1.13-0.32,1.72c-4.16,4.36-8.41,8.57-12.78,12.64c-4.37,4.07-8.63,7.39-12.78,9.98
			C52.57,462.24,44.2,465.13,36.75,465.13z M24.08,393.4c-0.29,0.52-0.57,1.24-0.86,2.16c-0.29,0.93-0.57,2.16-0.86,3.71
			c-0.57,4.21-1.04,8.22-1.4,12.03c-0.36,3.81-0.54,7.45-0.54,10.92c3.87-5.76,6.01-11.6,6.44-17.52c0.29-2.88,0.07-5.27-0.64-7.15
			C25.51,395.67,24.79,394.29,24.08,393.4z"/>
		<path class="st0" d="M146.73,465.13c-0.72,0-1.36,0-1.93,0c-0.57,0-1.22-0.07-1.93-0.22c-7.45-0.81-13.25-3.92-17.4-9.31
			c-1.86-2.36-3.37-5.25-4.51-8.65c-0.57,1.18-1.15,2.29-1.72,3.33c-0.57,1.04-1.22,2.07-1.93,3.1c-4.3,5.77-9.45,9.39-15.47,10.86
			c-2.01,0.52-4.08,0.7-6.23,0.55c-2.15-0.15-4.16-0.55-6.01-1.22c-4.87-1.85-8.16-5.36-9.88-10.53c-0.86-2.59-1.29-5.71-1.29-9.37
			s0.43-7.33,1.29-11.03c0.29-0.59,0.89-1.07,1.83-1.44c0.93-0.37,1.97-0.52,3.11-0.44c1.14,0.07,2.07,0.35,2.79,0.83
			c0.71,0.48,1,1.02,0.86,1.61c-0.86,3.48-1.29,6.93-1.29,10.37c0,3.44,0.43,6.34,1.29,8.7c0.86,2.73,1.97,4.64,3.33,5.71
			c1.36,1.07,2.4,1.76,3.11,2.05c1,0.37,2.22,0.41,3.65,0.11c1.43-0.29,3.08-1.07,4.94-2.33c1.86-1.26,3.72-3.1,5.58-5.54
			c1.86-2.44,3.61-5.58,5.26-9.42c1.64-3.84,2.9-8.5,3.76-13.97c0-0.59,0.39-1.07,1.18-1.44c0.79-0.37,1.75-0.55,2.9-0.55
			c1.14,0,2.11,0.19,2.9,0.55c0.79,0.37,1.25,0.85,1.4,1.44c0.43,1.85,0.79,3.9,1.07,6.15c0.29,2.26,0.68,4.55,1.18,6.87
			c0.5,2.33,1.14,4.55,1.93,6.65c0.79,2.11,1.75,3.9,2.9,5.38c1.14,1.4,2.61,2.79,4.4,4.16c1.79,1.37,4.04,2.2,6.77,2.49
			c3.15,0.37,6.34,0.02,9.56-1.05c3.22-1.07,6.05-2.23,8.49-3.49c4.58-2.36,9.31-5.63,14.18-9.81c4.87-4.17,9.88-8.92,15.04-14.25
			c0.57-0.59,1.4-0.98,2.47-1.16c1.07-0.18,2.18-0.13,3.33,0.17c1.14,0.3,1.9,0.72,2.26,1.27c0.36,0.55,0.25,1.13-0.32,1.72
			c-5.44,5.54-10.74,10.5-15.9,14.86c-5.16,4.36-10.17,7.8-15.04,10.31C160.91,463.13,153.61,465.13,146.73,465.13z"/>
		<path class="st0" d="M281.41,431.09c1.15,0.3,1.9,0.72,2.26,1.27c0.36,0.55,0.25,1.13-0.32,1.72c-1.29,1.4-2.94,3.14-4.94,5.21
			c-2.01,2.07-4.3,4.25-6.87,6.54c-2.58,2.29-5.34,4.56-8.27,6.82c-2.94,2.26-6.09,4.29-9.45,6.1c-3.37,1.81-6.87,3.27-10.52,4.38
			c-3.65,1.11-7.34,1.63-11.06,1.55c-7.88-0.07-15.11-2.88-21.7-8.42l-2.15-2c-3.3,2-6.23,3.82-8.81,5.49
			c-2.58,1.66-4.3,2.94-5.16,3.82c-0.72,0.89-2.01,1.33-3.87,1.33c-0.29,0-0.86-0.07-1.72-0.22c-1.14-0.29-1.9-0.72-2.26-1.27
			c-0.36-0.55-0.32-1.13,0.11-1.72c1.15-1.18,3.04-2.64,5.69-4.38c2.65-1.74,5.76-3.71,9.34-5.93l2.36-1.44
			c-2.72-3.03-5.23-6.06-7.52-9.09c-0.86-1.03-1.68-2.2-2.47-3.49c-0.79-1.29-1.61-2.42-2.47-3.38c-0.43-0.59-0.43-1.16,0-1.72
			c0.43-0.55,1.21-0.94,2.36-1.16c1.14-0.29,2.26-0.33,3.33-0.11c1.07,0.22,1.83,0.63,2.26,1.22c0.86,1.04,1.68,2.18,2.47,3.44
			c0.79,1.26,1.61,2.44,2.47,3.55c0.86,1.11,1.75,2.26,2.68,3.44c0.93,1.18,1.9,2.33,2.9,3.44c4.58-2.81,8.95-5.75,13.1-8.81
			c4.15-3.07,7.66-6.11,10.53-9.15c0.57-0.59,1.4-0.98,2.47-1.16c1.07-0.18,2.18-0.17,3.33,0.06c1.14,0.3,1.9,0.72,2.26,1.27
			c0.36,0.55,0.25,1.13-0.32,1.72c-3.3,3.55-7.41,7.08-12.35,10.59c-4.94,3.51-9.92,6.86-14.93,10.03c2.72,2.66,5.58,4.92,8.59,6.76
			c3.01,1.85,6.3,2.81,9.88,2.88c2,0,4.37-0.42,7.09-1.27c2.72-0.85,5.83-2.33,9.34-4.43c3.51-2.11,7.48-4.97,11.92-8.59
			c4.44-3.62,9.38-8.24,14.82-13.86c0.57-0.59,1.4-0.98,2.47-1.16C279.37,430.74,280.41,430.8,281.41,431.09z"/>
		<path class="st0" d="M342.85,465.13c-0.72,0-1.36,0-1.93,0c-0.57,0-1.22-0.07-1.93-0.22c-7.45-0.81-13.25-3.92-17.4-9.31
			c-1.86-2.36-3.37-5.25-4.51-8.65c-0.57,1.18-1.15,2.29-1.72,3.33c-0.58,1.04-1.22,2.07-1.93,3.1c-4.29,5.77-9.45,9.39-15.47,10.86
			c-2.01,0.52-4.08,0.7-6.23,0.55c-2.15-0.15-4.15-0.55-6.01-1.22c-4.87-1.85-8.16-5.36-9.88-10.53c-0.86-2.59-1.29-5.71-1.29-9.37
			s0.43-7.33,1.29-11.03c0.28-0.59,0.89-1.07,1.83-1.44c0.93-0.37,1.97-0.52,3.11-0.44c1.14,0.07,2.07,0.35,2.79,0.83
			c0.72,0.48,1,1.02,0.86,1.61c-0.86,3.48-1.29,6.93-1.29,10.37c0,3.44,0.43,6.34,1.29,8.7c0.86,2.73,1.97,4.64,3.33,5.71
			c1.36,1.07,2.4,1.76,3.11,2.05c1,0.37,2.22,0.41,3.65,0.11c1.43-0.29,3.08-1.07,4.94-2.33c1.86-1.26,3.72-3.1,5.58-5.54
			c1.86-2.44,3.61-5.58,5.26-9.42c1.65-3.84,2.9-8.5,3.76-13.97c0-0.59,0.39-1.07,1.18-1.44c0.79-0.37,1.75-0.55,2.9-0.55
			c1.14,0,2.11,0.19,2.9,0.55c0.79,0.37,1.25,0.85,1.4,1.44c0.43,1.85,0.78,3.9,1.07,6.15c0.29,2.26,0.68,4.55,1.18,6.87
			c0.5,2.33,1.14,4.55,1.93,6.65c0.79,2.11,1.75,3.9,2.9,5.38c1.14,1.4,2.61,2.79,4.4,4.16c1.79,1.37,4.04,2.2,6.77,2.49
			c3.15,0.37,6.34,0.02,9.56-1.05c3.22-1.07,6.05-2.23,8.49-3.49c4.58-2.36,9.31-5.63,14.18-9.81c4.87-4.17,9.88-8.92,15.04-14.25
			c0.57-0.59,1.4-0.98,2.47-1.16c1.07-0.18,2.18-0.13,3.33,0.17c1.14,0.3,1.9,0.72,2.26,1.27c0.36,0.55,0.25,1.13-0.32,1.72
			c-5.44,5.54-10.74,10.5-15.89,14.86c-5.16,4.36-10.17,7.8-15.04,10.31C357.02,463.13,349.72,465.13,342.85,465.13z"/>
		<path class="st0" d="M480.11,431.76c0.72,0.52,0.97,1.05,0.75,1.61c-0.22,0.55-0.83,1.02-1.83,1.39c-3.3,1.26-6.52,2.44-9.67,3.55
			c-3.15,1.11-6.16,1.88-9.02,2.33c-5.59,0.81-10.74,1-15.47,0.55c-3.3-0.29-6.27-0.85-8.91-1.66c-2.65-0.81-5.02-1.72-7.09-2.72
			c-2.08-1-3.9-2.05-5.48-3.16c-1.58-1.11-3.01-2.14-4.3-3.1l-2.15-1.55c-1.72,1.63-3.4,3.94-5.05,6.93
			c-1.65,2.99-3.19,6.52-4.62,10.59c-0.86,2.74-1.54,5.25-2.04,7.54c-0.5,2.29-0.9,4.14-1.18,5.54c0.14,1.48,0.11,2.51-0.11,3.1
			c-0.22,0.59-0.68,1.07-1.4,1.44c-1,0.37-2.01,0.55-3.01,0.55c-0.43,0-1.07-0.07-1.93-0.22c-0.29-0.15-0.68-0.33-1.18-0.55
			c-0.5-0.22-0.9-0.55-1.18-1c-0.14-0.37-0.18-0.87-0.11-1.5c0.07-0.63,0.18-1.28,0.32-1.94c-0.15-1.33-0.4-3.1-0.75-5.32
			c-0.36-2.22-0.86-4.54-1.5-6.98c-0.64-2.44-1.4-4.86-2.26-7.26c-0.86-2.4-1.93-4.53-3.22-6.37c-0.43-0.59-0.39-1.14,0.11-1.66
			c0.5-0.52,1.32-0.89,2.47-1.11c1.14-0.22,2.22-0.2,3.22,0.06c1,0.26,1.72,0.68,2.15,1.27c1.14,1.48,1.97,3.2,2.47,5.15
			c0.5,1.96,1.11,3.79,1.83,5.49c3.15-8.57,7.09-14.41,11.81-17.52c0.86-0.59,1.75-0.98,2.68-1.16c0.93-0.18,1.68-0.28,2.26-0.28
			c2,0.07,3.69,0.5,5.05,1.27c1.36,0.78,2.83,1.76,4.4,2.94c1,0.81,2.18,1.7,3.54,2.66c1.36,0.96,2.86,1.85,4.51,2.66
			c1.64,0.81,3.47,1.54,5.48,2.16c2,0.63,4.22,1.05,6.66,1.27c3.87,0.37,8.13,0.02,12.78-1.05c4.65-1.07,9.63-2.57,14.93-4.49
			c1-0.37,2.07-0.5,3.22-0.39C478.46,430.93,479.39,431.24,480.11,431.76z"/>
		<path class="st0" d="M584.5,431.09c1.15,0.3,1.9,0.72,2.26,1.27c0.36,0.55,0.25,1.13-0.32,1.72c-3.01,3.1-7.09,6.21-12.24,9.31
			s-10.78,6.12-16.86,9.04c-6.09,2.92-12.46,5.75-19.12,8.48c-6.66,2.73-13,5.32-19.01,7.76c0,0.22-0.04,0.42-0.11,0.61
			c-0.07,0.18-0.11,0.35-0.11,0.5c-0.72,3.4-1.61,6.23-2.68,8.48c-1.08,2.25-2.33,4.05-3.76,5.38c-4.29,3.77-8.95,6.43-13.96,7.98
			c-3.15,0.96-6.23,1.44-9.24,1.44c-1.86,0-3.65-0.22-5.37-0.67c-3.15-0.96-4.94-2.44-5.37-4.43c-0.43-1.85,0.43-3.88,2.58-6.1
			c2.43-2.44,6.3-4.93,11.6-7.48c5.3-2.55,11.38-5.23,18.26-8.04c0.28-1.92,0.54-4.05,0.75-6.37c0.21-2.33,0.46-4.93,0.75-7.82
			c-0.86,0.89-1.72,1.9-2.58,3.05c-0.86,1.15-1.86,2.31-3.01,3.49c-1.15,1.18-2.54,2.27-4.19,3.27c-1.65,1-3.69,1.79-6.12,2.38
			c-4.44,1.03-8.52,0.81-12.24-0.67c-2.44-0.89-4.51-2.33-6.23-4.32c-1.72-2-3.01-4.36-3.87-7.09c-0.86-2.73-1.29-5.76-1.29-9.09
			c0-3.33,0.43-6.83,1.29-10.53c0.14-0.59,0.68-1.07,1.61-1.44c0.93-0.37,1.97-0.52,3.11-0.44c1.14,0.07,2.11,0.35,2.9,0.83
			c0.79,0.48,1.04,1.02,0.75,1.61c-0.86,3.48-1.29,6.93-1.29,10.37c0,3.44,0.43,6.34,1.29,8.7c0.72,1.92,1.64,3.59,2.79,4.99
			c1.15,1.4,2.43,2.37,3.87,2.88c1.29,0.44,2.5,0.52,3.65,0.22c1.43-0.29,3.08-1.11,4.94-2.44c1.86-1.33,3.76-3.33,5.69-5.99
			c1.93-2.66,3.69-6.06,5.26-10.2c1.57-4.14,2.79-9.16,3.65-15.08c0.14-0.59,0.61-1.07,1.4-1.44c0.79-0.37,1.75-0.55,2.9-0.55
			c1.14,0,2.11,0.2,2.9,0.61c0.79,0.41,1.25,0.91,1.4,1.5c0.14,2.74,0.21,5.21,0.21,7.43c0,2.22,0,4.79,0,7.7
			c0,2.92-0.07,5.93-0.21,9.04c-0.15,2.14-0.25,4.2-0.32,6.15c-0.07,1.96-0.25,3.82-0.54,5.6c5.58-2.22,11.28-4.56,17.08-7.04
			c5.8-2.48,11.35-5.02,16.65-7.65c5.3-2.62,10.13-5.28,14.5-7.98c4.37-2.7,7.77-5.34,10.2-7.93c0.57-0.59,1.4-0.98,2.47-1.16
			C582.24,430.74,583.35,430.8,584.5,431.09z M505.24,481.42c0.71-0.59,1.43-1.55,2.15-2.88c0.71-1.33,1.43-3.29,2.15-5.88
			c-4.87,2.07-9.1,4.05-12.67,5.93c-3.58,1.88-6.23,3.68-7.95,5.38c-1.15,1.26-1.76,2.27-1.83,3.05c-0.07,0.78,0.25,1.27,0.97,1.5
			c0.57,0.15,1.47,0.17,2.68,0.06c1.22-0.11,2.61-0.44,4.19-1c1.57-0.55,3.25-1.33,5.05-2.33
			C501.76,484.25,503.52,482.97,505.24,481.42z"/>
	</g>
</g>
</svg>
